<svg width="18" height="14" viewBox="0 0 18 14" fill="none" xmlns="http://www.w3.org/2000/svg">
<path d="M16.4647 0.000765377C16.0771 0.0129633 15.7091 0.187858 15.4386 0.488278C15.1019 0.852519 12.8733 3.32976 10.5723 5.8856C8.70408 7.96051 7.38783 9.42031 6.64672 10.2404L2.47227 6.80192C2.16081 6.5088 1.75097 6.36825 1.34026 6.41385C0.929557 6.45945 0.554564 6.68689 0.304568 7.04231C0.0545326 7.39773 -0.0480153 7.84943 0.0210445 8.28967C0.0901042 8.72992 0.324695 9.11966 0.668954 9.36606L5.89274 13.6706C6.18009 13.9068 6.53683 14.0226 6.89704 13.9963C7.25708 13.9701 7.5963 13.8036 7.85153 13.5276C8.18815 13.1635 10.4168 10.6943 12.7177 8.13841C15.0187 5.58272 17.3921 2.94046 17.5529 2.76655C17.8402 2.46161 18.0014 2.04427 18 1.60907C17.9988 1.17371 17.835 0.757462 17.5459 0.454616C17.2568 0.151924 16.867 -0.0118068 16.4647 0.000765377Z" fill="#01A77A"/>
</svg>
