<svg width="120" height="120" viewBox="0 0 120 120" fill="none" xmlns="http://www.w3.org/2000/svg">
<rect width="120" height="120" rx="40" fill="#2C2C2C"/>
<g clip-path="url(#clip0_107_990)">
<path d="M96.2232 53.0598C91.7289 52.9026 87.3314 53.5632 83.1997 54.9749C83.1175 50.5621 82.231 46.2361 80.5552 42.0888C80.2814 41.4116 79.5115 41.0844 78.833 41.3579C76.2156 42.4153 73.7643 43.751 71.4981 45.348C68.7776 39.9822 65.2305 35.0926 60.9338 30.7975C60.417 30.281 59.5797 30.281 59.0633 30.7977C54.7647 35.0962 51.2179 39.9852 48.4995 45.3459C46.2345 43.75 43.7843 42.4149 41.1676 41.3579C40.4898 41.0842 39.7193 41.4115 39.4455 42.0888C37.767 46.2428 36.88 50.576 36.8002 54.9963C32.7248 53.5958 28.3331 52.901 23.7767 53.0598C23.0465 53.0854 22.4753 53.6979 22.5008 54.4279C23.1845 74.0034 39.3257 89.462 58.7629 89.462C59.1732 89.462 59.587 89.4546 60.0001 89.4409C60.4142 89.4548 60.8261 89.462 61.2374 89.462C80.6728 89.462 96.8159 74.0023 97.4994 54.4279C97.5246 53.6979 96.9534 53.0853 96.2232 53.0598ZM41.4174 44.3407C45.1448 46.0187 48.4852 48.3229 51.3623 51.2032C54.4511 54.2902 56.8735 57.898 58.5729 61.9307C57.4392 64.8591 56.6955 67.8859 56.3488 70.9736C52.4493 64.3521 46.5143 59.0904 39.4417 56.0207C39.3984 52.0325 40.0614 48.1133 41.4174 44.3407ZM25.2187 55.6832C33.7079 55.7195 41.7519 58.9017 47.9961 64.7248C54.2408 70.548 57.9766 78.3493 58.6045 86.8161C41.1043 86.7337 26.5214 73.135 25.2187 55.6832ZM53.2332 49.3326C52.4037 48.5022 51.5377 47.7173 50.6384 46.9767C53.0614 42.0906 56.2038 37.6086 59.9989 33.6266C63.792 37.6058 66.9341 42.0881 69.359 46.9788C68.4606 47.7187 67.5953 48.5025 66.7663 49.332C64.0076 52.0893 61.7405 55.2342 59.9998 58.7067C58.2606 55.2359 55.9936 52.0912 53.2332 49.3326ZM59.9947 79.5275C59.6507 78.3023 59.2447 77.104 58.7794 75.9361C58.7708 75.6535 58.7664 75.3548 58.7664 75.0273C58.7664 70.6918 59.594 66.4467 61.226 62.4094C62.9355 58.1794 65.4288 54.409 68.6372 51.2026C71.5157 48.3225 74.8565 46.0184 78.5837 44.3407C79.9365 48.1051 80.5992 52.0153 80.559 55.9944C76.7913 57.6244 73.2911 59.9067 70.1998 62.7896C65.2513 67.404 61.7657 73.1712 59.9947 79.5275ZM61.3955 86.8159C62.0236 78.3493 65.759 70.548 72.0038 64.7246C78.2485 58.9011 86.2913 55.7189 94.7813 55.683C93.4784 73.136 78.8972 86.7354 61.3955 86.8159Z" fill="url(#paint0_linear_107_990)"/>
</g>
<defs>
<linearGradient id="paint0_linear_107_990" x1="22.5" y1="30.4102" x2="99.88" y2="33.7134" gradientUnits="userSpaceOnUse">
<stop stop-color="#4CCE70"/>
<stop offset="1" stop-color="#01A77A"/>
</linearGradient>
<clipPath id="clip0_107_990">
<rect width="75" height="75" fill="white" transform="translate(22.5 22.5)"/>
</clipPath>
</defs>
</svg>
