<svg width="120" height="120" viewBox="0 0 120 120" fill="none" xmlns="http://www.w3.org/2000/svg">
<rect width="120" height="120" rx="40" fill="#2C2C2C"/>
<path d="M23.5312 35.7188C22.8064 35.7188 22.2188 36.3064 22.2188 37.0312C22.2188 37.7561 22.8064 38.3438 23.5312 38.3438H28.7812C29.5061 38.3438 30.0938 37.7561 30.0938 37.0312C30.0938 36.3064 29.5061 35.7188 28.7812 35.7188H23.5312Z" fill="url(#paint0_linear_107_984)"/>
<path d="M35.0625 35.7188C34.3376 35.7188 33.75 36.3064 33.75 37.0312C33.75 37.7561 34.3376 38.3438 35.0625 38.3438H50.4844C51.2093 38.3438 51.7969 37.7561 51.7969 37.0312C51.7969 36.3064 51.2093 35.7188 50.4844 35.7188H35.0625Z" fill="url(#paint1_linear_107_984)"/>
<path fill-rule="evenodd" clip-rule="evenodd" d="M29.8125 44.9062C29.0876 44.9062 28.5 45.4939 28.5 46.2188C28.5 46.9436 29.0876 47.5312 29.8125 47.5312H60C65.104 47.5312 68.2506 48.3269 70.7674 49.604C72.9068 50.6897 74.633 52.1331 76.7937 53.9399C77.2403 54.3133 77.7056 54.7024 78.1969 55.1069L78.5015 55.3578L78.8938 55.399C90.8772 56.6604 93.5751 60.7109 94.125 62.7846V67.875C94.125 68.5999 93.5377 69.1875 92.8125 69.1875H89.4223C88.7976 65.463 85.5583 62.625 81.6562 62.625C77.7542 62.625 74.515 65.463 73.8901 69.1875H50.0474C49.4225 65.463 46.1833 62.625 42.2812 62.625C38.3792 62.625 35.14 65.463 34.5151 69.1875H28.1719C27.447 69.1875 26.8594 69.7751 26.8594 70.5C26.8594 71.2249 27.447 71.8125 28.1719 71.8125H34.5151C35.14 75.537 38.3792 78.375 42.2812 78.375C46.1833 78.375 49.4225 75.537 50.0474 71.8125H73.8901C74.515 75.537 77.7542 78.375 81.6562 78.375C85.5583 78.375 88.7976 75.537 89.4223 71.8125H92.8125C94.9873 71.8125 96.75 70.0496 96.75 67.875V62.4755L96.7165 62.3299C95.8805 58.7082 91.9397 54.219 79.5641 52.8315C79.2185 52.5449 78.8793 52.2607 78.5442 51.98C76.378 50.1655 74.3851 48.4963 71.9553 47.2632C68.9759 45.7512 65.396 44.9062 60 44.9062H29.8125ZM76.4062 70.5C76.4062 67.6005 78.7567 65.25 81.6562 65.25C84.5556 65.25 86.9062 67.6005 86.9062 70.5C86.9062 73.3995 84.5556 75.75 81.6562 75.75C78.7567 75.75 76.4062 73.3995 76.4062 70.5ZM42.2812 65.25C39.3817 65.25 37.0312 67.6005 37.0312 70.5C37.0312 73.3995 39.3817 75.75 42.2812 75.75C45.1808 75.75 47.5312 73.3995 47.5312 70.5C47.5312 67.6005 45.1808 65.25 42.2812 65.25Z" fill="url(#paint2_linear_107_984)"/>
<path d="M22.2656 52.7812C22.2656 52.0564 22.8533 51.4688 23.5781 51.4688H38.3438C39.0686 51.4688 39.6562 52.0564 39.6562 52.7812C39.6562 53.5061 39.0686 54.0938 38.3438 54.0938H23.5781C22.8533 54.0938 22.2656 53.5061 22.2656 52.7812Z" fill="url(#paint3_linear_107_984)"/>
<path d="M75.3656 54.4782C75.8782 54.9907 75.8782 55.8218 75.3656 56.3343L75.2627 56.4373C74.0319 57.6679 72.3628 58.3594 70.6223 58.3594H49.8281C49.1032 58.3594 48.5156 57.7718 48.5156 57.0469C48.5156 56.322 49.1032 55.7344 49.8281 55.7344H70.6223C71.6666 55.7344 72.6681 55.3196 73.4065 54.5811L73.5094 54.4782C74.022 53.9656 74.853 53.9656 75.3656 54.4782Z" fill="url(#paint4_linear_107_984)"/>
<path d="M48.1406 84.6094C48.1406 83.8842 48.7282 83.2969 49.4531 83.2969H55.0312C55.7561 83.2969 56.3438 83.8842 56.3438 84.6094C56.3438 85.3345 55.7561 85.9219 55.0312 85.9219H49.4531C48.7282 85.9219 48.1406 85.3345 48.1406 84.6094Z" fill="url(#paint5_linear_107_984)"/>
<path d="M60.3281 84.6094C60.3281 83.8842 60.9157 83.2969 61.6406 83.2969H76.4062C77.1311 83.2969 77.7188 83.8842 77.7188 84.6094C77.7188 85.3345 77.1311 85.9219 76.4062 85.9219H61.6406C60.9157 85.9219 60.3281 85.3345 60.3281 84.6094Z" fill="url(#paint6_linear_107_984)"/>
<defs>
<linearGradient id="paint0_linear_107_984" x1="22.2188" y1="35.7188" x2="99.0637" y2="39.5532" gradientUnits="userSpaceOnUse">
<stop stop-color="#4CCE70"/>
<stop offset="1" stop-color="#01A77A"/>
</linearGradient>
<linearGradient id="paint1_linear_107_984" x1="22.2188" y1="35.7188" x2="99.0637" y2="39.5532" gradientUnits="userSpaceOnUse">
<stop stop-color="#4CCE70"/>
<stop offset="1" stop-color="#01A77A"/>
</linearGradient>
<linearGradient id="paint2_linear_107_984" x1="22.2188" y1="35.7188" x2="99.0637" y2="39.5532" gradientUnits="userSpaceOnUse">
<stop stop-color="#4CCE70"/>
<stop offset="1" stop-color="#01A77A"/>
</linearGradient>
<linearGradient id="paint3_linear_107_984" x1="22.2188" y1="35.7188" x2="99.0637" y2="39.5532" gradientUnits="userSpaceOnUse">
<stop stop-color="#4CCE70"/>
<stop offset="1" stop-color="#01A77A"/>
</linearGradient>
<linearGradient id="paint4_linear_107_984" x1="22.2188" y1="35.7188" x2="99.0637" y2="39.5532" gradientUnits="userSpaceOnUse">
<stop stop-color="#4CCE70"/>
<stop offset="1" stop-color="#01A77A"/>
</linearGradient>
<linearGradient id="paint5_linear_107_984" x1="22.2188" y1="35.7188" x2="99.0637" y2="39.5532" gradientUnits="userSpaceOnUse">
<stop stop-color="#4CCE70"/>
<stop offset="1" stop-color="#01A77A"/>
</linearGradient>
<linearGradient id="paint6_linear_107_984" x1="22.2188" y1="35.7188" x2="99.0637" y2="39.5532" gradientUnits="userSpaceOnUse">
<stop stop-color="#4CCE70"/>
<stop offset="1" stop-color="#01A77A"/>
</linearGradient>
</defs>
</svg>
