<svg width="120" height="120" viewBox="0 0 120 120" fill="none" xmlns="http://www.w3.org/2000/svg">
<rect width="120" height="120" rx="40" fill="#2C2C2C"/>
<path d="M81.343 25.2694C81.4455 24.7038 81.1544 24.1399 80.6336 23.8965C80.1128 23.6531 79.4934 23.7912 79.1254 24.2328L70.7484 34.2853L66.2976 27.2164C66.0067 26.7544 65.4525 26.531 64.9226 26.6621C64.3926 26.7933 64.0066 27.2493 63.9647 27.7936L63.0154 40.1335C62.9618 40.8304 63.4834 41.4388 64.1803 41.4924C64.8772 41.546 65.4856 41.0245 65.5392 40.3276L66.1949 31.804L69.5344 37.108C69.7503 37.4508 70.1173 37.6696 70.5215 37.6965C70.9257 37.7234 71.3184 37.5551 71.5777 37.2439L77.9925 29.5461L76.3212 38.7385C76.2418 39.1752 76.397 39.6216 76.7301 39.9149C77.0633 40.2082 77.5258 40.3055 77.9489 40.1714L86.3201 37.5171L80.7545 43.4803C80.4824 43.7721 80.3634 44.1752 80.4343 44.5681C80.5046 44.9609 80.7564 45.2973 81.114 45.4758L86.4922 48.1649L78.9404 49.4235C78.2509 49.5384 77.7851 50.1906 77.9 50.88C78.0149 51.5695 78.6671 52.0353 79.3565 51.9203L90.7473 50.0219C91.2877 49.9318 91.7091 49.5038 91.7908 48.9617C91.8724 48.4196 91.5952 47.8867 91.1048 47.6415L83.7604 43.9692L91.4642 35.7152C91.8566 35.2946 91.9161 34.6621 91.6091 34.1757C91.3016 33.6892 90.7049 33.4713 90.1568 33.6452L79.1877 37.1232L81.343 25.2694Z" fill="url(#paint0_linear_107_996)"/>
<path d="M36.2701 43.8987C36.5354 43.7642 36.8105 43.711 37.0637 43.711H62.3816C62.6348 43.711 62.9099 43.7642 63.1752 43.8987C64.5804 44.6112 66.8535 46.5743 67.9724 49.9582C68.1918 50.6219 67.8317 51.3378 67.168 51.5572C66.5044 51.7766 65.7885 51.4165 65.5691 50.7528C64.7258 48.2024 63.0852 46.761 62.1884 46.2422H37.2568C36.1601 46.8761 33.9828 48.8682 33.4582 52.5496C33.4143 52.8576 33.263 53.1238 33.0475 53.3158C34.1786 54.4692 35.5197 54.9565 36.2434 55.0668H46.6903C47.3893 55.0668 47.9559 55.6334 47.9559 56.3324C47.9559 57.0314 47.3893 57.598 46.6903 57.598H36.0776L35.9992 57.5882C34.3766 57.3848 31.1389 56.0994 29.5106 52.5804H24.8295C24.0767 52.5804 23.4609 53.1931 23.4609 53.9556V54.0667C23.4609 54.7481 23.9564 55.3234 24.6219 55.4261L28.3909 56.0074C29.7142 56.2114 30.3497 57.7375 29.5773 58.8216L28.2258 60.7185C27.8682 61.2205 27.6757 61.8224 27.6757 62.44V68.7445C27.6757 70.3821 28.999 71.7042 30.6248 71.7042H39.7293C40.4283 71.7042 40.995 72.2709 40.995 72.9698C40.995 73.6688 40.4283 74.2355 39.7293 74.2355H30.6248C30.0562 74.2355 29.5081 74.1488 28.9927 73.988V76.403C28.9927 76.8739 29.3726 77.2501 29.8345 77.2501H36.6834C37.1453 77.2501 37.5251 76.8379 37.5251 76.1389C37.5251 75.4399 38.0918 74.8733 38.7908 74.8733C39.4898 74.8733 40.0564 75.4399 40.0564 76.1389C40.0564 78.2694 38.5493 79.7812 36.6834 79.7812H29.8345C27.9686 79.7812 26.4615 78.2658 26.4615 76.403L26.4671 72.322C25.6424 71.3606 25.1444 70.1103 25.1444 68.7445V62.44C25.1444 61.2964 25.5008 60.1809 26.1643 59.2497L26.822 58.3266L24.236 57.9277C22.3315 57.6339 20.9297 55.9923 20.9297 54.0667V53.9556C20.9297 51.8011 22.6727 50.0491 24.8295 50.0491H29.9886C30.501 50.0491 30.9553 50.2632 31.2802 50.5978C32.3094 46.8148 34.7875 44.6505 36.2701 43.8987Z" fill="url(#paint1_linear_107_996)"/>
<path d="M29.5158 60.1441C30.036 59.6772 30.8362 59.7203 31.3031 60.2404L33.2967 62.4612H35.3633C36.0623 62.4612 36.6289 63.0278 36.6289 63.7268C36.6289 64.4258 36.0623 64.9924 35.3633 64.9924H32.9667C32.4574 64.9924 31.9729 64.7757 31.6333 64.3974L29.4195 61.9314C28.9526 61.4113 28.9957 60.6111 29.5158 60.1441Z" fill="url(#paint2_linear_107_996)"/>
<path d="M45.9689 70.9019C46.4891 70.435 47.2893 70.4781 47.7563 70.9982L49.7499 73.219H54.9804C55.6794 73.219 56.2461 73.7857 56.2461 74.4846C56.2461 75.1836 55.6794 75.7502 54.9804 75.7502H49.4199C48.9106 75.7502 48.426 75.5335 48.0865 75.1553L45.8726 72.6893C45.4057 72.1691 45.4488 71.3689 45.9689 70.9019Z" fill="url(#paint3_linear_107_996)"/>
<path d="M86.3828 70.9019C86.9029 71.3689 86.946 72.1691 86.4789 72.6893L84.2654 75.1553C83.9255 75.5335 83.4408 75.7502 82.932 75.7502H77.3711C76.6721 75.7502 76.1055 75.1836 76.1055 74.4846C76.1055 73.7857 76.6721 73.219 77.3711 73.219H82.6017L84.5951 70.9982C85.0621 70.4781 85.8626 70.435 86.3828 70.9019Z" fill="url(#paint4_linear_107_996)"/>
<path d="M54.2417 79.2382C54.2417 78.5392 54.8083 77.9725 55.5073 77.9725H76.8443C77.5432 77.9725 78.1099 78.5392 78.1099 79.2382C78.1099 79.9369 77.5432 80.5039 76.8443 80.5039H55.5073C54.8083 80.5039 54.2417 79.9369 54.2417 79.2382Z" fill="url(#paint5_linear_107_996)"/>
<path fill-rule="evenodd" clip-rule="evenodd" d="M52.7233 54.6565C52.9885 54.522 53.2636 54.4688 53.5168 54.4688H78.8348C79.0879 54.4688 79.363 54.522 79.6283 54.6565C81.1108 55.4083 83.5889 57.5726 84.6185 61.3556C84.9431 61.021 85.3975 60.8069 85.91 60.8069H91.0687C93.226 60.8069 94.9688 62.5589 94.9688 64.7134V64.8245C94.9688 66.7501 93.5671 68.3918 91.6623 68.6855L89.0766 69.0844L89.7341 70.0075C90.3973 70.9387 90.7542 72.0542 90.7542 73.1978V79.5023C90.7542 80.8678 90.2562 82.1182 89.4316 83.0795L89.4367 87.1611C89.4367 89.0235 87.93 90.5391 86.0638 90.5391H79.2151C77.3492 90.5391 75.8421 88.957 75.8421 86.8966C75.8421 86.198 76.4087 85.631 77.1077 85.631C77.8067 85.631 78.3733 86.198 78.3733 86.8966C78.3733 87.5959 78.7532 88.0078 79.2151 88.0078H86.0638C86.5258 88.0078 86.9055 87.6319 86.9055 87.1611V84.7457C86.3904 84.9064 85.8423 84.9931 85.2734 84.9931H47.0779C46.5094 84.9931 45.9612 84.9064 45.4459 84.7457V87.1611C45.4459 87.6319 45.8257 88.0078 46.2876 88.0078H53.1365C53.5984 88.0078 53.9783 87.5959 53.9783 86.8966C53.9783 86.198 54.5449 85.631 55.2439 85.631C55.9429 85.631 56.5095 86.198 56.5095 86.8966C56.5095 89.2734 55.0024 90.5391 53.1365 90.5391H46.2876C44.4217 90.5391 42.9146 89.0235 42.9146 87.1611L42.9202 83.0795C42.0956 82.1182 41.5975 80.8678 41.5975 79.5023V73.1978C41.5975 72.0542 41.9539 70.9387 42.6174 70.0075L43.2751 69.0844L40.6891 68.6855C38.7846 68.3918 37.3828 66.7501 37.3828 64.8245V64.7134C37.3828 62.5589 39.1258 60.8069 41.2826 60.8069H46.4417C46.9542 60.8069 47.4084 61.021 47.7333 61.3556C48.7626 57.5726 51.2406 55.4083 52.7233 54.6565ZM49.5007 64.0736C50.6318 65.227 51.9729 65.7143 52.6965 65.8246H79.6551C80.3786 65.7143 81.7196 65.227 82.851 64.0736C82.6352 63.8816 82.484 63.6154 82.4403 63.3074C81.9157 59.626 79.7383 57.6339 78.6416 57.0001H53.7099C52.6132 57.6339 50.436 59.626 49.9114 63.3074C49.8674 63.6154 49.7161 63.8816 49.5007 64.0736ZM41.2826 63.3382C40.5298 63.3382 39.9141 63.9509 39.9141 64.7134V64.8245C39.9141 65.5059 40.4095 66.0812 41.075 66.1839L44.844 66.7652C46.1673 66.9693 46.8029 68.4953 46.0304 69.5794L44.679 71.4763C44.3213 71.9783 44.1288 72.5802 44.1288 73.1978V79.5023C44.1288 81.1399 45.4521 82.4618 47.0779 82.4618H85.2734C86.8991 82.4618 88.223 81.1399 88.223 79.5023V73.1978C88.223 72.5802 88.03 71.9783 87.6724 71.4763L86.3214 69.5794C85.5487 68.4953 86.1841 66.9693 87.5073 66.7652L91.2763 66.1839C91.942 66.0812 92.4375 65.5059 92.4375 64.8245V64.7134C92.4375 63.9509 91.8218 63.3382 91.0687 63.3382H86.3878C84.7596 66.8573 81.5221 68.1426 79.8989 68.346L79.8211 68.3558H52.5307L52.4523 68.346C50.8297 68.1426 47.592 66.8573 45.9638 63.3382H41.2826Z" fill="url(#paint6_linear_107_996)"/>
<defs>
<linearGradient id="paint0_linear_107_996" x1="20.9297" y1="23.7773" x2="97.3511" y2="26.6259" gradientUnits="userSpaceOnUse">
<stop stop-color="#4CCE70"/>
<stop offset="1" stop-color="#01A77A"/>
</linearGradient>
<linearGradient id="paint1_linear_107_996" x1="20.9297" y1="23.7773" x2="97.3511" y2="26.6259" gradientUnits="userSpaceOnUse">
<stop stop-color="#4CCE70"/>
<stop offset="1" stop-color="#01A77A"/>
</linearGradient>
<linearGradient id="paint2_linear_107_996" x1="20.9297" y1="23.7773" x2="97.3511" y2="26.6259" gradientUnits="userSpaceOnUse">
<stop stop-color="#4CCE70"/>
<stop offset="1" stop-color="#01A77A"/>
</linearGradient>
<linearGradient id="paint3_linear_107_996" x1="20.9297" y1="23.7773" x2="97.3511" y2="26.6259" gradientUnits="userSpaceOnUse">
<stop stop-color="#4CCE70"/>
<stop offset="1" stop-color="#01A77A"/>
</linearGradient>
<linearGradient id="paint4_linear_107_996" x1="20.9297" y1="23.7773" x2="97.3511" y2="26.6259" gradientUnits="userSpaceOnUse">
<stop stop-color="#4CCE70"/>
<stop offset="1" stop-color="#01A77A"/>
</linearGradient>
<linearGradient id="paint5_linear_107_996" x1="20.9297" y1="23.7773" x2="97.3511" y2="26.6259" gradientUnits="userSpaceOnUse">
<stop stop-color="#4CCE70"/>
<stop offset="1" stop-color="#01A77A"/>
</linearGradient>
<linearGradient id="paint6_linear_107_996" x1="20.9297" y1="23.7773" x2="97.3511" y2="26.6259" gradientUnits="userSpaceOnUse">
<stop stop-color="#4CCE70"/>
<stop offset="1" stop-color="#01A77A"/>
</linearGradient>
</defs>
</svg>
