<svg width="120" height="120" viewBox="0 0 120 120" fill="none" xmlns="http://www.w3.org/2000/svg">
<rect width="120" height="120" rx="40" fill="#2C2C2C"/>
<g clip-path="url(#clip0_107_1012)">
<path fill-rule="evenodd" clip-rule="evenodd" d="M38.0235 69.8346C38.0235 69.1482 37.4671 68.5918 36.7807 68.5918H17.7429C17.0564 68.5918 16.5 68.0353 16.5 67.3489V66.5068C16.5 65.8204 17.0564 65.2639 17.7429 65.2639H40.1085C40.7949 65.2639 41.3514 65.8204 41.3514 66.5068V98.057C41.3514 98.7434 40.7949 99.2998 40.1085 99.2998H39.2664C38.58 99.2998 38.0235 98.7434 38.0235 98.057V69.8346Z" fill="url(#paint0_linear_107_1012)"/>
<path fill-rule="evenodd" clip-rule="evenodd" d="M82.15 68.9207C82.15 68.2343 82.7065 67.6779 83.3929 67.6779H102.257C102.944 67.6779 103.5 67.1214 103.5 66.435V65.5929C103.5 64.9065 102.944 64.35 102.257 64.35H80.0651C79.3786 64.35 78.8222 64.9065 78.8222 65.5929V98.057C78.8222 98.7434 79.3786 99.2998 80.0651 99.2998H80.9072C81.5936 99.2998 82.15 98.7434 82.15 98.057V68.9207Z" fill="url(#paint1_linear_107_1012)"/>
<path fill-rule="evenodd" clip-rule="evenodd" d="M103.5 26.2226C103.5 26.909 102.944 27.4654 102.257 27.4654L17.7429 27.4653C17.0564 27.4653 16.5 26.9088 16.5 26.2224V25.3803C16.5 24.6939 17.0564 24.1375 17.7429 24.1375L102.257 24.1376C102.944 24.1376 103.5 24.694 103.5 25.3805V26.2226Z" fill="url(#paint2_linear_107_1012)"/>
<path fill-rule="evenodd" clip-rule="evenodd" d="M25.2203 46.9855C25.2203 47.4902 24.8111 47.8994 24.3064 47.8994H18.6568C18.1521 47.8994 17.7429 47.4902 17.7429 46.9855C17.7429 46.4807 18.1521 46.0716 18.6568 46.0716H24.3064C24.8111 46.0716 25.2203 46.4807 25.2203 46.9855ZM41.12 46.9855C41.12 47.4902 40.7108 47.8994 40.2061 47.8994H34.8139C34.3092 47.8994 33.9 47.4902 33.9 46.9855C33.9 46.4807 34.3092 46.0716 34.8139 46.0716H40.2061C40.7108 46.0716 41.12 46.4807 41.12 46.9855ZM91.2058 46.9855C91.2058 47.4902 90.7967 47.8994 90.2919 47.8994H84.8998C84.395 47.8994 83.9859 47.4902 83.9859 46.9855C83.9859 46.4807 84.395 46.0716 84.8998 46.0716H90.2919C90.7967 46.0716 91.2058 46.4807 91.2058 46.9855ZM103.5 46.9855C103.5 47.4902 103.091 47.8994 102.586 47.8994H99.3398C98.835 47.8994 98.4258 47.4902 98.4258 46.9855C98.4258 46.4807 98.835 46.0716 99.3398 46.0716H102.586C103.091 46.0716 103.5 46.4807 103.5 46.9855Z" fill="url(#paint3_linear_107_1012)"/>
<path fill-rule="evenodd" clip-rule="evenodd" d="M60.5438 90.8538C60.039 90.8538 59.6298 90.4446 59.6298 89.9398V84.4563C59.6298 83.9516 60.039 83.5424 60.5438 83.5424C61.0485 83.5424 61.4577 83.9516 61.4577 84.4563V89.9398C61.4577 90.4446 61.0485 90.8538 60.5438 90.8538Z" fill="url(#paint4_linear_107_1012)"/>
<path d="M60.5438 76.231C60.039 76.231 59.6298 75.8218 59.6298 75.3171V69.8336C59.6298 69.3288 60.039 68.9196 60.5438 68.9196C61.0485 68.9196 61.4577 69.3288 61.4577 69.8336V75.3171C61.4577 75.8218 61.0485 76.231 60.5438 76.231Z" fill="url(#paint5_linear_107_1012)"/>
<rect x="52.543" y="46.054" width="22.7652" height="12.2582" rx="1.75117" transform="rotate(-30 52.543 46.054)" fill="url(#paint6_linear_107_1012)"/>
<rect x="30.1714" y="51.1392" width="22.2161" height="11.9625" rx="1.70893" fill="url(#paint7_linear_107_1012)"/>
</g>
<defs>
<linearGradient id="paint0_linear_107_1012" x1="16.5" y1="24.1375" x2="106.288" y2="27.6306" gradientUnits="userSpaceOnUse">
<stop stop-color="#4CCE70"/>
<stop offset="1" stop-color="#01A77A"/>
</linearGradient>
<linearGradient id="paint1_linear_107_1012" x1="16.5" y1="24.1375" x2="106.288" y2="27.6306" gradientUnits="userSpaceOnUse">
<stop stop-color="#4CCE70"/>
<stop offset="1" stop-color="#01A77A"/>
</linearGradient>
<linearGradient id="paint2_linear_107_1012" x1="16.5" y1="24.1375" x2="106.288" y2="27.6306" gradientUnits="userSpaceOnUse">
<stop stop-color="#4CCE70"/>
<stop offset="1" stop-color="#01A77A"/>
</linearGradient>
<linearGradient id="paint3_linear_107_1012" x1="16.5" y1="24.1375" x2="106.288" y2="27.6306" gradientUnits="userSpaceOnUse">
<stop stop-color="#4CCE70"/>
<stop offset="1" stop-color="#01A77A"/>
</linearGradient>
<linearGradient id="paint4_linear_107_1012" x1="16.5" y1="24.1375" x2="106.288" y2="27.6306" gradientUnits="userSpaceOnUse">
<stop stop-color="#4CCE70"/>
<stop offset="1" stop-color="#01A77A"/>
</linearGradient>
<linearGradient id="paint5_linear_107_1012" x1="16.5" y1="24.1375" x2="106.288" y2="27.6306" gradientUnits="userSpaceOnUse">
<stop stop-color="#4CCE70"/>
<stop offset="1" stop-color="#01A77A"/>
</linearGradient>
<linearGradient id="paint6_linear_107_1012" x1="52.543" y1="46.054" x2="75.982" y2="47.517" gradientUnits="userSpaceOnUse">
<stop stop-color="#4CCE70"/>
<stop offset="1" stop-color="#01A77A"/>
</linearGradient>
<linearGradient id="paint7_linear_107_1012" x1="30.1714" y1="51.1392" x2="53.045" y2="52.5669" gradientUnits="userSpaceOnUse">
<stop stop-color="#4CCE70"/>
<stop offset="1" stop-color="#01A77A"/>
</linearGradient>
<clipPath id="clip0_107_1012">
<rect width="87" height="78" fill="white" transform="translate(16.5 21)"/>
</clipPath>
</defs>
</svg>
