<svg width="120" height="120" viewBox="0 0 120 120" fill="none" xmlns="http://www.w3.org/2000/svg">
<rect width="120" height="120" rx="40" fill="#2C2C2C"/>
<path d="M75.7339 24H32.4677C31.9348 24 31.5 24.4356 31.5 24.9696V95.0251C31.5 95.5592 31.9348 96 32.4677 96H87.5325C88.0654 96 88.5 95.5592 88.5 95.0251V35.4858C88.5 35.2058 88.381 35.1592 87.9515 34.7391L77.3381 24.5963C76.8361 24.1193 76.7532 24 76.4583 24H75.7339ZM75.7339 24L75.7546 33.6191C75.7546 35.771 77.7211 35.6361 78.6679 35.6361H88.5M79.7547 43.8396H40.7938M79.7547 53.5416H40.7938M79.7547 63.2435H40.7938M79.7547 72.9455H40.7938M79.7547 82.6475H40.7938" stroke="url(#paint0_linear_107_1024)" stroke-width="3" stroke-miterlimit="10" stroke-linecap="round" stroke-linejoin="round"/>
<defs>
<linearGradient id="paint0_linear_107_1024" x1="31.5" y1="24" x2="90.3741" y2="25.5666" gradientUnits="userSpaceOnUse">
<stop stop-color="#4CCE70"/>
<stop offset="1" stop-color="#01A77A"/>
</linearGradient>
</defs>
</svg>
