<svg width="120" height="120" viewBox="0 0 120 120" fill="none" xmlns="http://www.w3.org/2000/svg">
<rect width="120" height="120" rx="40" fill="#2C2C2C"/>
<g clip-path="url(#clip0_107_1006)">
<path d="M67.6296 51.5663C65.5607 51.5663 63.5513 51.9676 61.6573 52.7587C61.0303 53.0206 60.7343 53.7413 60.9962 54.3684C61.2582 54.9955 61.9788 55.2911 62.6059 55.0295C64.1979 54.3644 65.888 54.0273 67.6296 54.0273C74.8216 54.0273 80.6726 59.8784 80.6726 67.0702C80.6726 74.2621 74.8216 80.1132 67.6296 80.1132C60.4377 80.1132 54.5867 74.2621 54.5867 67.0702C54.5867 65.3313 54.9228 63.6434 55.5859 62.0536C55.8475 61.4263 55.5511 60.7059 54.9239 60.4443C54.2971 60.1831 53.5762 60.4791 53.3146 61.1063C52.5258 62.9979 52.1257 65.0044 52.1257 67.0702C52.1257 75.6192 59.0807 82.5742 67.6296 82.5742C76.1786 82.5742 83.1336 75.6192 83.1336 67.0702C83.1336 58.5213 76.1786 51.5663 67.6296 51.5663Z" fill="url(#paint0_linear_107_1006)"/>
<path d="M67.6296 77.1601C73.1932 77.1601 77.7195 72.6338 77.7195 67.0702C77.7195 61.5067 73.1932 56.9804 67.6296 56.9804C62.0661 56.9804 57.5398 61.5067 57.5398 67.0702C57.5398 72.6338 62.0662 77.1601 67.6296 77.1601ZM67.6296 59.4413C71.8362 59.4413 75.2586 62.8638 75.2586 67.0702C75.2586 71.2767 71.8362 74.6992 67.6296 74.6992C63.423 74.6992 60.0007 71.2769 60.0007 67.0702C60.0007 62.8636 63.423 59.4413 67.6296 59.4413Z" fill="url(#paint1_linear_107_1006)"/>
<path d="M85.2596 45.6601H81.5165L77.2203 38.3896C76.9989 38.0149 76.5961 37.7851 76.161 37.7851H59.0984C58.6632 37.7851 58.2605 38.0149 58.0391 38.3896L53.7429 45.6601H46.7109V44.1835C46.7109 41.7409 44.7239 39.7538 42.2812 39.7538C39.8386 39.7538 37.8516 41.7409 37.8516 44.1835V45.6601H34.7404C31.2994 45.6601 28.5 48.4595 28.5 51.9007V82.2398C28.5 85.681 31.2994 88.4804 34.7404 88.4804H85.2594C88.7004 88.4804 91.4999 85.681 91.4999 82.2398V51.9007C91.5 48.4595 88.7004 45.6601 85.2596 45.6601ZM59.8005 40.246H75.4587L78.658 45.6601H56.6013L59.8005 40.246ZM40.3125 44.1835C40.3125 43.098 41.1957 42.2148 42.2812 42.2148C43.3668 42.2148 44.25 43.098 44.25 44.1835V45.6601H40.3125V44.1835ZM89.0391 82.2398C89.0391 84.324 87.3436 86.0195 85.2596 86.0195H34.7404C32.6564 86.0195 30.9609 84.3239 30.9609 82.2398V51.9007C30.9609 49.8165 32.6564 48.121 34.7404 48.121H85.2594C87.3435 48.121 89.0389 49.8165 89.0389 51.9007L89.0391 82.2398Z" fill="url(#paint2_linear_107_1006)"/>
<path d="M67.6296 34.5478C68.3092 34.5478 68.8601 33.9968 68.8601 33.3174V26.75C68.8601 26.0705 68.3092 25.5195 67.6296 25.5195C66.9501 25.5195 66.3992 26.0704 66.3992 26.75V33.3174C66.3992 33.997 66.9501 34.5478 67.6296 34.5478Z" fill="url(#paint3_linear_107_1006)"/>
<path d="M73.4848 34.5478C73.7997 34.5478 74.1147 34.4276 74.3549 34.1874L78.8696 29.6727C79.3501 29.1922 79.3501 28.4131 78.8695 27.9325C78.389 27.4521 77.6099 27.4521 77.1294 27.9325L72.6148 32.4473C72.1343 32.9278 72.1343 33.7069 72.6148 34.1876C72.8551 34.4278 73.17 34.5478 73.4848 34.5478Z" fill="url(#paint4_linear_107_1006)"/>
<path d="M60.9044 34.1876C61.1447 34.4278 61.4596 34.548 61.7745 34.548C62.0893 34.548 62.4043 34.4278 62.6445 34.1876C63.125 33.7071 63.1251 32.9279 62.6446 32.4473L58.1299 27.9326C57.6494 27.4524 56.8703 27.4522 56.3898 27.9326C55.9093 28.4131 55.9092 29.1922 56.3897 29.6729L60.9044 34.1876Z" fill="url(#paint5_linear_107_1006)"/>
<path d="M45.4805 55.7499H39.082C38.4024 55.7499 37.8516 56.3009 37.8516 56.9804C37.8516 57.66 38.4024 58.2109 39.082 58.2109H45.4805C46.1601 58.2109 46.7109 57.66 46.7109 56.9804C46.7109 56.3008 46.1601 55.7499 45.4805 55.7499Z" fill="url(#paint6_linear_107_1006)"/>
<path d="M57.5341 58.2107C57.8578 58.2107 58.1752 58.0791 58.4041 57.8502C58.6329 57.6214 58.7646 57.305 58.7646 56.9803C58.7646 56.6567 58.6329 56.3392 58.4041 56.1103C58.1752 55.8816 57.8578 55.7498 57.5341 55.7498C57.2105 55.7498 56.8931 55.8815 56.6642 56.1103C56.4341 56.3392 56.3037 56.6568 56.3037 56.9803C56.3037 57.3039 56.4341 57.6214 56.6642 57.8502C56.8931 58.0791 57.2093 58.2107 57.5341 58.2107Z" fill="url(#paint7_linear_107_1006)"/>
</g>
<defs>
<linearGradient id="paint0_linear_107_1006" x1="28.5" y1="25.5195" x2="93.5438" y2="27.7071" gradientUnits="userSpaceOnUse">
<stop stop-color="#4CCE70"/>
<stop offset="1" stop-color="#01A77A"/>
</linearGradient>
<linearGradient id="paint1_linear_107_1006" x1="28.5" y1="25.5195" x2="93.5438" y2="27.7071" gradientUnits="userSpaceOnUse">
<stop stop-color="#4CCE70"/>
<stop offset="1" stop-color="#01A77A"/>
</linearGradient>
<linearGradient id="paint2_linear_107_1006" x1="28.5" y1="25.5195" x2="93.5438" y2="27.7071" gradientUnits="userSpaceOnUse">
<stop stop-color="#4CCE70"/>
<stop offset="1" stop-color="#01A77A"/>
</linearGradient>
<linearGradient id="paint3_linear_107_1006" x1="28.5" y1="25.5195" x2="93.5438" y2="27.7071" gradientUnits="userSpaceOnUse">
<stop stop-color="#4CCE70"/>
<stop offset="1" stop-color="#01A77A"/>
</linearGradient>
<linearGradient id="paint4_linear_107_1006" x1="28.5" y1="25.5195" x2="93.5438" y2="27.7071" gradientUnits="userSpaceOnUse">
<stop stop-color="#4CCE70"/>
<stop offset="1" stop-color="#01A77A"/>
</linearGradient>
<linearGradient id="paint5_linear_107_1006" x1="28.5" y1="25.5195" x2="93.5438" y2="27.7071" gradientUnits="userSpaceOnUse">
<stop stop-color="#4CCE70"/>
<stop offset="1" stop-color="#01A77A"/>
</linearGradient>
<linearGradient id="paint6_linear_107_1006" x1="28.5" y1="25.5195" x2="93.5438" y2="27.7071" gradientUnits="userSpaceOnUse">
<stop stop-color="#4CCE70"/>
<stop offset="1" stop-color="#01A77A"/>
</linearGradient>
<linearGradient id="paint7_linear_107_1006" x1="28.5" y1="25.5195" x2="93.5438" y2="27.7071" gradientUnits="userSpaceOnUse">
<stop stop-color="#4CCE70"/>
<stop offset="1" stop-color="#01A77A"/>
</linearGradient>
<clipPath id="clip0_107_1006">
<rect width="63" height="63" fill="white" transform="translate(28.5 25.5)"/>
</clipPath>
</defs>
</svg>
