<svg width="18" height="18" viewBox="0 0 18 18" fill="none" xmlns="http://www.w3.org/2000/svg">
<path d="M16.2452 11.7549C15.3788 10.8948 13.9799 10.8948 13.1135 11.7549L12.5872 12.2876C12.1188 12.756 11.3808 12.8267 10.8353 12.4545C8.74962 11.0295 6.97197 9.25162 5.54729 7.16554C5.17514 6.61995 5.2456 5.88181 5.71417 5.41333L6.24675 4.88693C7.10666 4.02041 7.10666 2.62123 6.24675 1.75472L5.13014 0.644368C4.27023 -0.222145 2.86484 -0.222145 1.95993 0.689357C-0.324884 2.97427 -0.652177 6.51709 1.18968 9.11682C3.30746 12.1079 5.89353 14.6944 8.88409 16.8126C10.0136 17.6084 11.3163 18 12.6253 18C14.3195 18 16.0201 17.339 17.3101 16.0423L17.3551 15.9973C18.215 15.1373 18.215 13.7316 17.3551 12.8714L16.2449 11.7546L16.2452 11.7549Z" fill="url(#paint0_linear_107_142)"/>
<defs>
<linearGradient id="paint0_linear_107_142" x1="0" y1="0" x2="18.584" y2="0.624629" gradientUnits="userSpaceOnUse">
<stop stop-color="#4CCE70"/>
<stop offset="1" stop-color="#01A77A"/>
</linearGradient>
</defs>
</svg>
